<svg version="1.1" xmlns="http://www.w3.org/2000/svg" viewBox="0 0 857 799" width="857" height="799">
  <!-- svg-source:excalidraw -->
  
  <defs>
    <style>
      @font-face {
        font-family: "Virgil";
        src: url("https://excalidraw.com/Virgil.woff2");
      }
      @font-face {
        font-family: "Cascadia";
        src: url("https://excalidraw.com/Cascadia.woff2");
      }
    </style>
  </defs>
  <rect x="0" y="0" width="857" height="799" fill="#ffffff"></rect><g stroke-linecap="round" transform="translate(303 10) rotate(0 115 96)"><path d="M-1.06 0.96 C50.96 0.19, 101.9 -0.61, 231.52 0.21 M0.39 -0.26 C65.35 -0.92, 130.77 -0.01, 229.83 0.27 M228.8 1.84 C228.64 49.78, 229.86 97.06, 229.09 193.09 M230.76 0.64 C231.8 51, 231.39 102.8, 230.34 191.76 M228.71 191.81 C152.67 191.72, 78.93 191.81, 1.68 193.66 M230.47 192.03 C168.64 190.3, 106.54 190.41, -0.64 192.01 M-1.1 190.36 C-1.34 134.85, 0.08 76.99, -1.42 -1.42 M0.29 192.7 C2.36 133.32, 2.55 75.76, 0.61 0.82" stroke="#000000" stroke-width="1" fill="none"></path></g><g transform="translate(326 39) rotate(0 89.5 75)"><text x="0" y="18" font-family="Virgil, Segoe UI Emoji" font-size="20px" fill="#000000" text-anchor="start" style="white-space: pre;" direction="ltr">fact_immigration</text><text x="0" y="43" font-family="Virgil, Segoe UI Emoji" font-size="20px" fill="#000000" text-anchor="start" style="white-space: pre;" direction="ltr">- cic_id</text><text x="0" y="68" font-family="Virgil, Segoe UI Emoji" font-size="20px" fill="#000000" text-anchor="start" style="white-space: pre;" direction="ltr">- year</text><text x="0" y="93" font-family="Virgil, Segoe UI Emoji" font-size="20px" fill="#000000" text-anchor="start" style="white-space: pre;" direction="ltr">- month</text><text x="0" y="118" font-family="Virgil, Segoe UI Emoji" font-size="20px" fill="#000000" text-anchor="start" style="white-space: pre;" direction="ltr">- arrival_date</text><text x="0" y="143" font-family="Virgil, Segoe UI Emoji" font-size="20px" fill="#000000" text-anchor="start" style="white-space: pre;" direction="ltr">- departure_date</text></g><g stroke-linecap="round" transform="translate(568 265) rotate(0 134 115)"><path d="M1.09 -0.54 C91.18 2.5, 182.01 2.8, 266.93 1.49 M-0.02 0.16 C54.59 0.52, 111.04 0.45, 268.44 0.66 M266.85 0.74 C267.56 72.01, 268.72 143.36, 268.82 231.49 M267.9 0.57 C268.87 82.66, 268.12 165.65, 268.82 229.43 M266.5 230.15 C176.46 231.68, 86.6 232.95, 0.24 229.4 M267.62 229.61 C160.59 228.01, 53.76 228.64, -0.02 230.36 M0.5 229.66 C0.16 136.9, 1.67 44.51, -0.51 0.68 M-0.42 230.84 C2.47 163.21, 2.09 95.85, 0.22 -0.45" stroke="#000000" stroke-width="1" fill="none"></path></g><g transform="translate(627 271) rotate(0 88.34888888888884 94.21090047393363)"><text x="0" y="14.93575566087414" font-family="Virgil, Segoe UI Emoji" font-size="16.74860452869933px" fill="#000000" text-anchor="start" style="white-space: pre;" direction="ltr">dim_city_demography</text><text x="0" y="35.87151132174828" font-family="Virgil, Segoe UI Emoji" font-size="16.74860452869933px" fill="#000000" text-anchor="start" style="white-space: pre;" direction="ltr">- City</text><text x="0" y="56.80726698262242" font-family="Virgil, Segoe UI Emoji" font-size="16.74860452869933px" fill="#000000" text-anchor="start" style="white-space: pre;" direction="ltr">- State</text><text x="0" y="77.74302264349656" font-family="Virgil, Segoe UI Emoji" font-size="16.74860452869933px" fill="#000000" text-anchor="start" style="white-space: pre;" direction="ltr">- State Code</text><text x="0" y="98.6787783043707" font-family="Virgil, Segoe UI Emoji" font-size="16.74860452869933px" fill="#000000" text-anchor="start" style="white-space: pre;" direction="ltr">- Male Population</text><text x="0" y="119.61453396524485" font-family="Virgil, Segoe UI Emoji" font-size="16.74860452869933px" fill="#000000" text-anchor="start" style="white-space: pre;" direction="ltr">- Female Population</text><text x="0" y="140.55028962611897" font-family="Virgil, Segoe UI Emoji" font-size="16.74860452869933px" fill="#000000" text-anchor="start" style="white-space: pre;" direction="ltr">- Foreign-born</text><text x="0" y="161.48604528699312" font-family="Virgil, Segoe UI Emoji" font-size="16.74860452869933px" fill="#000000" text-anchor="start" style="white-space: pre;" direction="ltr">- Number of Veterans</text><text x="0" y="182.42180094786727" font-family="Virgil, Segoe UI Emoji" font-size="16.74860452869933px" fill="#000000" text-anchor="start" style="white-space: pre;" direction="ltr">- Race</text></g><g stroke-linecap="round" transform="translate(568 552) rotate(0 139.5 99.5)"><path d="M0.87 -0.85 C59.34 -2.54, 119 -0.5, 279.93 -1.11 M0.35 0.75 C74.25 0.18, 150.29 0.36, 278.42 0.51 M277.11 1.34 C279.54 39.43, 280.54 80.83, 279.69 197.98 M278.45 0.91 C278.84 51.77, 278.68 103.23, 278.84 199.8 M278.41 200.38 C208.36 199.1, 138.42 198.54, -0.45 197.93 M278.84 199.46 C183.43 200.73, 88.73 200.58, 0.35 198.51 M0.07 199.48 C0.1 135.11, -1 73.82, 1.1 -0.46 M-0.83 198.94 C-2.07 124.43, -0.72 52.2, -0.29 0.34" stroke="#000000" stroke-width="1" fill="none"></path></g><g transform="translate(583 577) rotate(0 128.5 75)"><text x="0" y="18" font-family="Virgil, Segoe UI Emoji" font-size="20px" fill="#000000" text-anchor="start" style="white-space: pre;" direction="ltr">dim_city_stats</text><text x="0" y="43" font-family="Virgil, Segoe UI Emoji" font-size="20px" fill="#000000" text-anchor="start" style="white-space: pre;" direction="ltr">- City</text><text x="0" y="68" font-family="Virgil, Segoe UI Emoji" font-size="20px" fill="#000000" text-anchor="start" style="white-space: pre;" direction="ltr">- State Code </text><text x="0" y="93" font-family="Virgil, Segoe UI Emoji" font-size="20px" fill="#000000" text-anchor="start" style="white-space: pre;" direction="ltr">- Median Age</text><text x="0" y="118" font-family="Virgil, Segoe UI Emoji" font-size="20px" fill="#000000" text-anchor="start" style="white-space: pre;" direction="ltr">- Average Household Size </text><text x="0" y="143" font-family="Virgil, Segoe UI Emoji" font-size="20px" fill="#000000" text-anchor="start" style="white-space: pre;" direction="ltr">- Count</text></g><g stroke-linecap="round" transform="translate(10 308) rotate(0 157 122.5)"><path d="M-0.3 -1.41 C86.38 -0.47, 173.07 0.59, 314.95 -0.48 M0.61 -0.63 C84.62 -2.09, 168.88 -1.44, 314.23 0.06 M312.96 -0.75 C315.12 91.24, 315.72 180.21, 315.44 243.95 M314.56 0.54 C312.47 85.37, 312.75 172.59, 313.25 244.66 M314.4 243.7 C221.96 244.27, 130.25 242.69, 0.35 245.79 M313.5 244.75 C231 246.19, 146.66 246.61, 0.07 244.49 M-0.21 246.4 C-2.74 188.18, -3.19 129.1, -1.49 0.87 M-0.51 244.45 C-0.08 176.95, 0.16 110.3, 0.04 -0.55" stroke="#000000" stroke-width="1" fill="none"></path></g><g transform="translate(89 319) rotate(0 66 125)"><text x="0" y="18" font-family="Virgil, Segoe UI Emoji" font-size="20px" fill="#000000" text-anchor="start" style="white-space: pre;" direction="ltr">dim_airports</text><text x="0" y="43" font-family="Virgil, Segoe UI Emoji" font-size="20px" fill="#000000" text-anchor="start" style="white-space: pre;" direction="ltr">- ident</text><text x="0" y="68" font-family="Virgil, Segoe UI Emoji" font-size="20px" fill="#000000" text-anchor="start" style="white-space: pre;" direction="ltr">- type</text><text x="0" y="93" font-family="Virgil, Segoe UI Emoji" font-size="20px" fill="#000000" text-anchor="start" style="white-space: pre;" direction="ltr">- name</text><text x="0" y="118" font-family="Virgil, Segoe UI Emoji" font-size="20px" fill="#000000" text-anchor="start" style="white-space: pre;" direction="ltr">- continent</text><text x="0" y="143" font-family="Virgil, Segoe UI Emoji" font-size="20px" fill="#000000" text-anchor="start" style="white-space: pre;" direction="ltr">- gps_code</text><text x="0" y="168" font-family="Virgil, Segoe UI Emoji" font-size="20px" fill="#000000" text-anchor="start" style="white-space: pre;" direction="ltr">- iata_code</text><text x="0" y="193" font-family="Virgil, Segoe UI Emoji" font-size="20px" fill="#000000" text-anchor="start" style="white-space: pre;" direction="ltr">- local_code</text><text x="0" y="218" font-family="Virgil, Segoe UI Emoji" font-size="20px" fill="#000000" text-anchor="start" style="white-space: pre;" direction="ltr">- iso_country</text><text x="0" y="243" font-family="Virgil, Segoe UI Emoji" font-size="20px" fill="#000000" text-anchor="start" style="white-space: pre;" direction="ltr"></text></g><g stroke-linecap="round" transform="translate(66 619) rotate(0 131 85)"><path d="M-1.46 -0.8 C57.5 -1.24, 115.75 0.57, 262.89 0.21 M0.34 0.79 C63.24 -0.74, 125.36 -0.48, 261.54 0.31 M261.2 1.53 C262.8 37.64, 262.79 73.18, 262.39 168.45 M262.76 -0.98 C259.7 38.62, 260.52 77.87, 261.44 170 M263.07 171.13 C173.95 171.12, 85.14 171.18, 0.47 170.67 M261.31 169.88 C197.68 171.61, 133.99 170.37, -0.11 169.38 M-1.56 169.99 C-1.98 113.58, -1.14 58.96, 1.43 0.91 M-0.34 170.29 C1.27 117.57, 0.8 64.74, 0.86 -0.23" stroke="#000000" stroke-width="1" fill="none"></path></g><g transform="translate(109 642) rotate(0 93 62.5)"><text x="0" y="18" font-family="Virgil, Segoe UI Emoji" font-size="20px" fill="#000000" text-anchor="start" style="white-space: pre;" direction="ltr">dim_airport_stats</text><text x="0" y="43" font-family="Virgil, Segoe UI Emoji" font-size="20px" fill="#000000" text-anchor="start" style="white-space: pre;" direction="ltr">- ident</text><text x="0" y="68" font-family="Virgil, Segoe UI Emoji" font-size="20px" fill="#000000" text-anchor="start" style="white-space: pre;" direction="ltr">- elevation_ft</text><text x="0" y="93" font-family="Virgil, Segoe UI Emoji" font-size="20px" fill="#000000" text-anchor="start" style="white-space: pre;" direction="ltr">- coordinates</text><text x="0" y="118" font-family="Virgil, Segoe UI Emoji" font-size="20px" fill="#000000" text-anchor="start" style="white-space: pre;" direction="ltr"></text></g><g stroke-linecap="round" transform="translate(615 80) rotate(0 89.5 76.5)"><path d="M-0.96 0.54 C61.28 2.02, 118.11 1.33, 178.49 1.3 M-0.15 -0.59 C46.42 -0.72, 94.16 -0.9, 179.43 0.63 M178.01 1.73 C181.12 55.68, 178.83 108.59, 179.12 151.46 M178.66 -0.14 C178.4 52.51, 178.96 104.07, 179.43 153.74 M178.99 151.97 C108.71 154.1, 40.04 153.46, -0.02 151.61 M178.66 152.36 C131.93 153.16, 83.68 151.86, -0.62 153.71 M0.91 151.45 C-1.71 121.27, -1.37 92.4, -1.48 1.07 M-0.26 152.7 C1.13 113.1, 0.49 74.24, -0.73 -0.86" stroke="#000000" stroke-width="1" fill="none"></path></g><g transform="translate(633 107) rotate(0 40 62.5)"><text x="0" y="18" font-family="Virgil, Segoe UI Emoji" font-size="20px" fill="#000000" text-anchor="start" style="white-space: pre;" direction="ltr">dim_city</text><text x="0" y="43" font-family="Virgil, Segoe UI Emoji" font-size="20px" fill="#000000" text-anchor="start" style="white-space: pre;" direction="ltr">-code</text><text x="0" y="68" font-family="Virgil, Segoe UI Emoji" font-size="20px" fill="#000000" text-anchor="start" style="white-space: pre;" direction="ltr">-city</text><text x="0" y="93" font-family="Virgil, Segoe UI Emoji" font-size="20px" fill="#000000" text-anchor="start" style="white-space: pre;" direction="ltr">-state</text><text x="0" y="118" font-family="Virgil, Segoe UI Emoji" font-size="20px" fill="#000000" text-anchor="start" style="white-space: pre;" direction="ltr"></text></g><g stroke-linecap="round" transform="translate(74 95) rotate(0 77.5 79)"><path d="M0.96 1.37 C48.89 1.06, 92.91 1.94, 154.91 -1.48 M-0.08 -0.46 C51.4 -0.19, 103.15 -0.21, 154.24 0.52 M153.24 -0.41 C156.57 43.07, 156.07 90.32, 154.71 157.86 M154.81 -0.61 C155.85 50.04, 156.65 99.96, 155.55 157.75 M155.63 157.98 C111.74 155.66, 70.57 156.81, 1.6 156.74 M155.44 158.77 C115.83 159.16, 76.53 158.63, 0.69 158.47 M0.18 156.24 C1.19 97.46, -0.3 38.19, -0.48 1.82 M0.44 158.33 C-1.07 119.06, -1.55 79.26, 0.75 0.7" stroke="#000000" stroke-width="1" fill="none"></path></g><g transform="translate(79 136.5) rotate(0 72.5 37.5)"><text x="72.5" y="18" font-family="Virgil, Segoe UI Emoji" font-size="20px" fill="#000000" text-anchor="middle" style="white-space: pre;" direction="ltr">dim_country</text><text x="72.5" y="43" font-family="Virgil, Segoe UI Emoji" font-size="20px" fill="#000000" text-anchor="middle" style="white-space: pre;" direction="ltr">-code</text><text x="72.5" y="68" font-family="Virgil, Segoe UI Emoji" font-size="20px" fill="#000000" text-anchor="middle" style="white-space: pre;" direction="ltr">- country</text></g></svg>