<svg version="1.1" xmlns="http://www.w3.org/2000/svg" viewBox="0 0 1416.782528673214 1046" width="1416.782528673214" height="1046">
  <!-- svg-source:excalidraw -->
  
  <defs>
    <style>
      @font-face {
        font-family: "Virgil";
        src: url("https://excalidraw.com/Virgil.woff2");
      }
      @font-face {
        font-family: "Cascadia";
        src: url("https://excalidraw.com/Cascadia.woff2");
      }
    </style>
  </defs>
  <rect x="0" y="0" width="1416.782528673214" height="1046" fill="#ffffff"></rect><g stroke-linecap="round" transform="translate(189.78242867321381 59) rotate(0 115 96)"><path d="M-1.06 0.96 C50.96 0.19, 101.9 -0.61, 231.52 0.21 M0.39 -0.26 C65.35 -0.92, 130.77 -0.01, 229.83 0.27 M228.8 1.84 C228.64 49.78, 229.86 97.06, 229.09 193.09 M230.76 0.64 C231.8 51, 231.39 102.8, 230.34 191.76 M228.71 191.81 C152.67 191.72, 78.93 191.81, 1.68 193.66 M230.47 192.03 C168.64 190.3, 106.54 190.41, -0.64 192.01 M-1.1 190.36 C-1.34 134.85, 0.08 76.99, -1.42 -1.42 M0.29 192.7 C2.36 133.32, 2.55 75.76, 0.61 0.82" stroke="#000000" stroke-width="1" fill="none"></path></g><g transform="translate(212.78242867321381 88) rotate(0 89.5 75)"><text x="0" y="18" font-family="Virgil, Segoe UI Emoji" font-size="20px" fill="#000000" text-anchor="start" style="white-space: pre;" direction="ltr">fact_immigration</text><text x="0" y="43" font-family="Virgil, Segoe UI Emoji" font-size="20px" fill="#000000" text-anchor="start" style="white-space: pre;" direction="ltr">- cic_id</text><text x="0" y="68" font-family="Virgil, Segoe UI Emoji" font-size="20px" fill="#000000" text-anchor="start" style="white-space: pre;" direction="ltr">- year</text><text x="0" y="93" font-family="Virgil, Segoe UI Emoji" font-size="20px" fill="#000000" text-anchor="start" style="white-space: pre;" direction="ltr">- month</text><text x="0" y="118" font-family="Virgil, Segoe UI Emoji" font-size="20px" fill="#000000" text-anchor="start" style="white-space: pre;" direction="ltr">- arrival_date</text><text x="0" y="143" font-family="Virgil, Segoe UI Emoji" font-size="20px" fill="#000000" text-anchor="start" style="white-space: pre;" direction="ltr">- departure_date</text></g><g stroke-linecap="round" transform="translate(702.7824286732139 494.66666666666674) rotate(0 134 115)"><path d="M1.09 -0.54 C91.18 2.5, 182.01 2.8, 266.93 1.49 M-0.02 0.16 C54.59 0.52, 111.04 0.45, 268.44 0.66 M266.85 0.74 C267.56 72.01, 268.72 143.36, 268.82 231.49 M267.9 0.57 C268.87 82.66, 268.12 165.65, 268.82 229.43 M266.5 230.15 C176.46 231.68, 86.6 232.95, 0.24 229.4 M267.62 229.61 C160.59 228.01, 53.76 228.64, -0.02 230.36 M0.5 229.66 C0.16 136.9, 1.67 44.51, -0.51 0.68 M-0.42 230.84 C2.47 163.21, 2.09 95.85, 0.22 -0.45" stroke="#000000" stroke-width="1" fill="none"></path></g><g transform="translate(739.7824286732134 517.3333333333335) rotate(0 88.34888888888884 94.21090047393363)"><text x="0" y="14.93575566087414" font-family="Virgil, Segoe UI Emoji" font-size="16.74860452869933px" fill="#000000" text-anchor="start" style="white-space: pre;" direction="ltr">dim_city_demography</text><text x="0" y="35.87151132174828" font-family="Virgil, Segoe UI Emoji" font-size="16.74860452869933px" fill="#000000" text-anchor="start" style="white-space: pre;" direction="ltr">- City</text><text x="0" y="56.80726698262242" font-family="Virgil, Segoe UI Emoji" font-size="16.74860452869933px" fill="#000000" text-anchor="start" style="white-space: pre;" direction="ltr">- State</text><text x="0" y="77.74302264349656" font-family="Virgil, Segoe UI Emoji" font-size="16.74860452869933px" fill="#000000" text-anchor="start" style="white-space: pre;" direction="ltr">- State Code</text><text x="0" y="98.6787783043707" font-family="Virgil, Segoe UI Emoji" font-size="16.74860452869933px" fill="#000000" text-anchor="start" style="white-space: pre;" direction="ltr">- Male Population</text><text x="0" y="119.61453396524485" font-family="Virgil, Segoe UI Emoji" font-size="16.74860452869933px" fill="#000000" text-anchor="start" style="white-space: pre;" direction="ltr">- Female Population</text><text x="0" y="140.55028962611897" font-family="Virgil, Segoe UI Emoji" font-size="16.74860452869933px" fill="#000000" text-anchor="start" style="white-space: pre;" direction="ltr">- Foreign-born</text><text x="0" y="161.48604528699312" font-family="Virgil, Segoe UI Emoji" font-size="16.74860452869933px" fill="#000000" text-anchor="start" style="white-space: pre;" direction="ltr">- Number of Veterans</text><text x="0" y="182.42180094786727" font-family="Virgil, Segoe UI Emoji" font-size="16.74860452869933px" fill="#000000" text-anchor="start" style="white-space: pre;" direction="ltr">- Race</text></g><g stroke-linecap="round" transform="translate(307.78242867321336 485) rotate(0 139.5 99.5)"><path d="M0.87 -0.85 C59.34 -2.54, 119 -0.5, 279.93 -1.11 M0.35 0.75 C74.25 0.18, 150.29 0.36, 278.42 0.51 M277.11 1.34 C279.54 39.43, 280.54 80.83, 279.69 197.98 M278.45 0.91 C278.84 51.77, 278.68 103.23, 278.84 199.8 M278.41 200.38 C208.36 199.1, 138.42 198.54, -0.45 197.93 M278.84 199.46 C183.43 200.73, 88.73 200.58, 0.35 198.51 M0.07 199.48 C0.1 135.11, -1 73.82, 1.1 -0.46 M-0.83 198.94 C-2.07 124.43, -0.72 52.2, -0.29 0.34" stroke="#000000" stroke-width="1" fill="none"></path></g><g transform="translate(333.78242867321416 507.33333333333326) rotate(0 128.50000000000006 75)"><text x="0" y="18" font-family="Virgil, Segoe UI Emoji" font-size="20px" fill="#000000" text-anchor="start" style="white-space: pre;" direction="ltr">dim_city_stats</text><text x="0" y="43" font-family="Virgil, Segoe UI Emoji" font-size="20px" fill="#000000" text-anchor="start" style="white-space: pre;" direction="ltr">- City</text><text x="0" y="68" font-family="Virgil, Segoe UI Emoji" font-size="20px" fill="#000000" text-anchor="start" style="white-space: pre;" direction="ltr">- State Code </text><text x="0" y="93" font-family="Virgil, Segoe UI Emoji" font-size="20px" fill="#000000" text-anchor="start" style="white-space: pre;" direction="ltr">- Median Age</text><text x="0" y="118" font-family="Virgil, Segoe UI Emoji" font-size="20px" fill="#000000" text-anchor="start" style="white-space: pre;" direction="ltr">- Average Household Size </text><text x="0" y="143" font-family="Virgil, Segoe UI Emoji" font-size="20px" fill="#000000" text-anchor="start" style="white-space: pre;" direction="ltr">- Count</text></g><g stroke-linecap="round" transform="translate(160.78242867321381 778.3333333333331) rotate(0 157 122.49999999999994)"><path d="M-0.3 -1.41 C86.38 -0.47, 173.07 0.59, 314.95 -0.48 M0.61 -0.63 C84.62 -2.09, 168.88 -1.44, 314.23 0.06 M312.96 -0.75 C315.12 91.24, 315.72 180.21, 315.44 243.95 M314.56 0.54 C312.47 85.37, 312.75 172.59, 313.25 244.66 M314.4 243.7 C221.96 244.27, 130.25 242.69, 0.35 245.79 M313.5 244.75 C231 246.19, 146.66 246.61, 0.07 244.49 M-0.21 246.4 C-2.74 188.18, -3.19 129.1, -1.49 0.87 M-0.51 244.45 C-0.08 176.95, 0.16 110.3, 0.04 -0.55" stroke="#000000" stroke-width="1" fill="none"></path></g><g transform="translate(241.11576200654707 786) rotate(0 66 125)"><text x="0" y="18" font-family="Virgil, Segoe UI Emoji" font-size="20px" fill="#000000" text-anchor="start" style="white-space: pre;" direction="ltr">dim_airports</text><text x="0" y="43" font-family="Virgil, Segoe UI Emoji" font-size="20px" fill="#000000" text-anchor="start" style="white-space: pre;" direction="ltr">- ident</text><text x="0" y="68" font-family="Virgil, Segoe UI Emoji" font-size="20px" fill="#000000" text-anchor="start" style="white-space: pre;" direction="ltr">- type</text><text x="0" y="93" font-family="Virgil, Segoe UI Emoji" font-size="20px" fill="#000000" text-anchor="start" style="white-space: pre;" direction="ltr">- name</text><text x="0" y="118" font-family="Virgil, Segoe UI Emoji" font-size="20px" fill="#000000" text-anchor="start" style="white-space: pre;" direction="ltr">- continent</text><text x="0" y="143" font-family="Virgil, Segoe UI Emoji" font-size="20px" fill="#000000" text-anchor="start" style="white-space: pre;" direction="ltr">- gps_code</text><text x="0" y="168" font-family="Virgil, Segoe UI Emoji" font-size="20px" fill="#000000" text-anchor="start" style="white-space: pre;" direction="ltr">- iata_code</text><text x="0" y="193" font-family="Virgil, Segoe UI Emoji" font-size="20px" fill="#000000" text-anchor="start" style="white-space: pre;" direction="ltr">- local_code</text><text x="0" y="218" font-family="Virgil, Segoe UI Emoji" font-size="20px" fill="#000000" text-anchor="start" style="white-space: pre;" direction="ltr">- iso_country</text><text x="0" y="243" font-family="Virgil, Segoe UI Emoji" font-size="20px" fill="#000000" text-anchor="start" style="white-space: pre;" direction="ltr"></text></g><g stroke-linecap="round" transform="translate(772.1157620065471 799) rotate(0 131 85)"><path d="M-1.46 -0.8 C57.5 -1.24, 115.75 0.57, 262.89 0.21 M0.34 0.79 C63.24 -0.74, 125.36 -0.48, 261.54 0.31 M261.2 1.53 C262.8 37.64, 262.79 73.18, 262.39 168.45 M262.76 -0.98 C259.7 38.62, 260.52 77.87, 261.44 170 M263.07 171.13 C173.95 171.12, 85.14 171.18, 0.47 170.67 M261.31 169.88 C197.68 171.61, 133.99 170.37, -0.11 169.38 M-1.56 169.99 C-1.98 113.58, -1.14 58.96, 1.43 0.91 M-0.34 170.29 C1.27 117.57, 0.8 64.74, 0.86 -0.23" stroke="#000000" stroke-width="1" fill="none"></path></g><g transform="translate(787.4490953398804 833.6666666666667) rotate(0 93 62.5)"><text x="0" y="18" font-family="Virgil, Segoe UI Emoji" font-size="20px" fill="#000000" text-anchor="start" style="white-space: pre;" direction="ltr">dim_airport_stats</text><text x="0" y="43" font-family="Virgil, Segoe UI Emoji" font-size="20px" fill="#000000" text-anchor="start" style="white-space: pre;" direction="ltr">- ident</text><text x="0" y="68" font-family="Virgil, Segoe UI Emoji" font-size="20px" fill="#000000" text-anchor="start" style="white-space: pre;" direction="ltr">- elevation_ft</text><text x="0" y="93" font-family="Virgil, Segoe UI Emoji" font-size="20px" fill="#000000" text-anchor="start" style="white-space: pre;" direction="ltr">- coordinates</text><text x="0" y="118" font-family="Virgil, Segoe UI Emoji" font-size="20px" fill="#000000" text-anchor="start" style="white-space: pre;" direction="ltr"></text></g><g stroke-linecap="round" transform="translate(865.7824286732139 280.6666666666667) rotate(0 89.5 76.50000000000003)"><path d="M-0.96 0.54 C61.28 2.02, 118.11 1.33, 178.49 1.3 M-0.15 -0.59 C46.42 -0.72, 94.16 -0.9, 179.43 0.63 M178.01 1.73 C181.12 55.68, 178.83 108.59, 179.12 151.46 M178.66 -0.14 C178.4 52.51, 178.96 104.07, 179.43 153.74 M178.99 151.97 C108.71 154.1, 40.04 153.46, -0.02 151.61 M178.66 152.36 C131.93 153.16, 83.68 151.86, -0.62 153.71 M0.91 151.45 C-1.71 121.27, -1.37 92.4, -1.48 1.07 M-0.26 152.7 C1.13 113.1, 0.49 74.24, -0.73 -0.86" stroke="#000000" stroke-width="1" fill="none"></path></g><g transform="translate(912.7824286732136 307.3333333333333) rotate(0 40 62.49999999999997)"><text x="0" y="18" font-family="Virgil, Segoe UI Emoji" font-size="20px" fill="#000000" text-anchor="start" style="white-space: pre;" direction="ltr">dim_city</text><text x="0" y="43" font-family="Virgil, Segoe UI Emoji" font-size="20px" fill="#000000" text-anchor="start" style="white-space: pre;" direction="ltr">-code</text><text x="0" y="68" font-family="Virgil, Segoe UI Emoji" font-size="20px" fill="#000000" text-anchor="start" style="white-space: pre;" direction="ltr">-city</text><text x="0" y="93" font-family="Virgil, Segoe UI Emoji" font-size="20px" fill="#000000" text-anchor="start" style="white-space: pre;" direction="ltr">-state</text><text x="0" y="118" font-family="Virgil, Segoe UI Emoji" font-size="20px" fill="#000000" text-anchor="start" style="white-space: pre;" direction="ltr"></text></g><g stroke-linecap="round" transform="translate(874.7824286732139 39) rotate(0 77.5 79)"><path d="M0.96 1.37 C48.89 1.06, 92.91 1.94, 154.91 -1.48 M-0.08 -0.46 C51.4 -0.19, 103.15 -0.21, 154.24 0.52 M153.24 -0.41 C156.57 43.07, 156.07 90.32, 154.71 157.86 M154.81 -0.61 C155.85 50.04, 156.65 99.96, 155.55 157.75 M155.63 157.98 C111.74 155.66, 70.57 156.81, 1.6 156.74 M155.44 158.77 C115.83 159.16, 76.53 158.63, 0.69 158.47 M0.18 156.24 C1.19 97.46, -0.3 38.19, -0.48 1.82 M0.44 158.33 C-1.07 119.06, -1.55 79.26, 0.75 0.7" stroke="#000000" stroke-width="1" fill="none"></path></g><g transform="translate(879.7824286732139 80.5) rotate(0 72.5 37.5)"><text x="72.5" y="18" font-family="Virgil, Segoe UI Emoji" font-size="20px" fill="#000000" text-anchor="middle" style="white-space: pre;" direction="ltr">dim_country</text><text x="72.5" y="43" font-family="Virgil, Segoe UI Emoji" font-size="20px" fill="#000000" text-anchor="middle" style="white-space: pre;" direction="ltr">-code</text><text x="72.5" y="68" font-family="Virgil, Segoe UI Emoji" font-size="20px" fill="#000000" text-anchor="middle" style="white-space: pre;" direction="ltr">- country</text></g><g transform="translate(572.7824286732139 16) rotate(0 64 137.5)"><text x="0" y="18" font-family="Virgil, Segoe UI Emoji" font-size="20px" fill="#000000" text-anchor="start" style="white-space: pre;" direction="ltr">dim immigrant</text><text x="0" y="43" font-family="Virgil, Segoe UI Emoji" font-size="20px" fill="#000000" text-anchor="start" style="white-space: pre;" direction="ltr">-id </text><text x="0" y="68" font-family="Virgil, Segoe UI Emoji" font-size="20px" fill="#000000" text-anchor="start" style="white-space: pre;" direction="ltr">- cic_id</text><text x="0" y="93" font-family="Virgil, Segoe UI Emoji" font-size="20px" fill="#000000" text-anchor="start" style="white-space: pre;" direction="ltr">-cit</text><text x="0" y="118" font-family="Virgil, Segoe UI Emoji" font-size="20px" fill="#000000" text-anchor="start" style="white-space: pre;" direction="ltr">- res</text><text x="0" y="143" font-family="Virgil, Segoe UI Emoji" font-size="20px" fill="#000000" text-anchor="start" style="white-space: pre;" direction="ltr">- visa</text><text x="0" y="168" font-family="Virgil, Segoe UI Emoji" font-size="20px" fill="#000000" text-anchor="start" style="white-space: pre;" direction="ltr">- age</text><text x="0" y="193" font-family="Virgil, Segoe UI Emoji" font-size="20px" fill="#000000" text-anchor="start" style="white-space: pre;" direction="ltr">- occupation</text><text x="0" y="218" font-family="Virgil, Segoe UI Emoji" font-size="20px" fill="#000000" text-anchor="start" style="white-space: pre;" direction="ltr">- gender</text><text x="0" y="243" font-family="Virgil, Segoe UI Emoji" font-size="20px" fill="#000000" text-anchor="start" style="white-space: pre;" direction="ltr">- address</text><text x="0" y="268" font-family="Virgil, Segoe UI Emoji" font-size="20px" fill="#000000" text-anchor="start" style="white-space: pre;" direction="ltr">- INS number</text></g><g stroke-linecap="round" transform="translate(545.7824286732139 10) rotate(0 102.5 143.5)"><path d="M-1.24 1 C61.2 -0.59, 120.53 1.11, 204.72 1.24 M-0.1 0.42 C69.99 1.91, 140.69 2.48, 205.74 -0.65 M206.5 -1.32 C205.53 84.35, 207 169.02, 205.78 288.47 M204.87 0.16 C203.09 87.07, 202.69 173.95, 204.35 286.97 M204.98 285.73 C160.55 286.3, 120.39 286.7, 0.38 287.28 M204.17 287.37 C154.87 286.27, 106.51 285.37, -0.04 286.2 M0.22 288.22 C1.36 174.03, 2.54 58.22, -0.2 1.23 M0.62 287.13 C0.69 221.03, 0.68 156.99, -0.27 0.02" stroke="#000000" stroke-width="1" fill="none"></path></g><g stroke-linecap="round"><g transform="translate(421.7824286732138 119) rotate(0 43.59939327188772 -1.2957549471408356)"><path d="M-0.18 0.23 C14.54 -0.1, 74.06 -2.5, 88.94 -2.82 M-1.74 -0.69 C12.77 -0.82, 72.93 -1.8, 87.95 -1.72" stroke="#000000" stroke-width="1" fill="none"></path></g></g><g stroke-linecap="round"><g transform="translate(511.7824286732138 116) rotate(0 17.16183042847547 -19.19009749809281)"><path d="M0.15 -0.89 C6.06 -7, 29.45 -31.44, 35.56 -37.68 M-1.23 1.25 C4.47 -5.14, 28.09 -33.23, 34.37 -39.63" stroke="#000000" stroke-width="1" fill="none"></path></g></g><g stroke-linecap="round"><g transform="translate(752.7824286732139 101) rotate(0 59.15345647522258 6.19751546449028)"><path d="M0.75 0.71 C20.47 2.62, 99.17 10.31, 118.63 12.35 M-0.32 0.04 C19.28 1.5, 98.54 8.56, 118.01 10.42" stroke="#000000" stroke-width="1" fill="none"></path></g></g><g stroke-linecap="round"><g transform="translate(754.7824286732139 129) rotate(0 56.47791360653946 -4.792298738136907)"><path d="M0.24 -0.55 C19.07 -2.36, 95.21 -9.55, 114.04 -11.35 M-1.09 1.77 C17.49 0.19, 93.64 -8, 113.12 -10" stroke="#000000" stroke-width="1" fill="none"></path></g></g><g transform="translate(151.78242867321381 273) rotate(0 87 62.5)"><text x="0" y="18" font-family="Virgil, Segoe UI Emoji" font-size="20px" fill="#000000" text-anchor="start" style="white-space: pre;" direction="ltr">dim flight detaims</text><text x="0" y="43" font-family="Virgil, Segoe UI Emoji" font-size="20px" fill="#000000" text-anchor="start" style="white-space: pre;" direction="ltr">- id </text><text x="0" y="68" font-family="Virgil, Segoe UI Emoji" font-size="20px" fill="#000000" text-anchor="start" style="white-space: pre;" direction="ltr">- cic_id</text><text x="0" y="93" font-family="Virgil, Segoe UI Emoji" font-size="20px" fill="#000000" text-anchor="start" style="white-space: pre;" direction="ltr">- flight_number</text><text x="0" y="118" font-family="Virgil, Segoe UI Emoji" font-size="20px" fill="#000000" text-anchor="start" style="white-space: pre;" direction="ltr">- airline</text></g><g stroke-linecap="round" transform="translate(155.78242867321381 260) rotate(0 89.5 72.5)"><path d="M0.18 1.08 C36.78 -1.44, 74.63 0.08, 177.45 -0.11 M-0.01 0.59 C64.36 1.37, 129.06 0.58, 178.76 0.57 M179.91 1.62 C178.66 51.88, 180.43 106.38, 180.33 145.62 M178.03 0.64 C178.12 29.58, 178.61 60.73, 178.72 144.98 M180.71 145.38 C118.13 145.4, 58.96 146, 1.75 144.35 M179.57 145.87 C108.71 143.49, 38.7 144.11, -0.57 144.32 M0.26 143.62 C-2.09 92.83, 0.16 35.76, 0.79 -1.3 M0.43 145.94 C-1.95 90.03, -2.13 35.4, -0.44 -0.24" stroke="#000000" stroke-width="1" fill="none"></path></g><g stroke-linecap="round"><g transform="translate(151.78242867321393 332.6666666666667) rotate(0 -50.83363497416795 -96.8177252281447)"><path d="M-1.07 1.1 C-1.42 1.29, 22.26 1.25, -1.1 1.01 C-24.46 0.78, -148.08 34.8, -141.24 -0.29 C-134.41 -35.38, 9.6 -174.75, 39.91 -209.52 M0.56 0.64 C0.48 0.51, 24.76 -0.61, 1.04 -0.58 C-22.69 -0.54, -148.3 35.62, -141.78 0.87 C-135.27 -33.87, 9.9 -174.08, 40.12 -209.05" stroke="#000000" stroke-width="1" fill="none"></path></g></g><g stroke-linecap="round"><g transform="translate(866.7824286732139 389.33333333333337) rotate(0 -56.879326611027636 -66.5543379961203)"><path d="M1.06 0.49 C-18.04 -21.67, -94.48 -111.19, -113.68 -133.6 M0.15 -0.3 C-19.22 -22.23, -96.18 -110.09, -114.82 -132.2" stroke="#000000" stroke-width="1" fill="none"></path></g></g><g transform="translate(1406.782428673214 347.66666666666663) rotate(0 0.00004999999998744897 0.00004999999998744897)" stroke="none" fill="#000000"><path d="M 1.57,-1.57 Q 1.57,-1.57 1.77,-1.27 1.98,-0.98 2.09,-0.64 2.20,-0.29 2.19,0.05 2.18,0.41 2.05,0.75 1.93,1.09 1.70,1.37 1.48,1.65 1.18,1.84 0.87,2.04 0.52,2.12 0.18,2.21 -0.17,2.18 -0.53,2.15 -0.86,2.01 -1.19,1.87 -1.46,1.63 -1.73,1.39 -1.90,1.07 -2.08,0.76 -2.15,0.41 -2.21,0.05 -2.17,-0.29 -2.12,-0.65 -1.96,-0.97 -1.80,-1.29 -1.54,-1.54 -1.29,-1.80 -0.97,-1.96 -0.65,-2.12 -0.29,-2.17 0.06,-2.21 0.41,-2.15 0.76,-2.08 1.07,-1.90 1.39,-1.73 1.63,-1.46 1.87,-1.19 2.01,-0.86 2.15,-0.53 2.18,-0.17 2.21,0.18 2.12,0.52 2.03,0.87 1.84,1.18 1.65,1.48 1.37,1.70 1.09,1.93 0.75,2.05 0.41,2.18 0.05,2.19 -0.30,2.20 -0.64,2.09 -0.98,1.98 -1.27,1.77 -1.57,1.56 -1.57,1.57 -1.57,1.57 -1.73,1.35 -1.90,1.14 -2.01,0.90 -2.12,0.66 -2.16,0.39 -2.21,0.13 -2.20,-0.13 -2.18,-0.40 -2.10,-0.65 -2.02,-0.91 -1.88,-1.14 -1.74,-1.36 -1.55,-1.55 -1.36,-1.74 -1.14,-1.88 -0.91,-2.02 -0.65,-2.10 -0.40,-2.18 -0.13,-2.20 0.13,-2.21 0.39,-2.16 0.66,-2.12 0.90,-2.01 1.14,-1.90 1.35,-1.73 1.57,-1.57 1.57,-1.57 L 1.57,-1.57 Z"></path></g><g transform="translate(1193.4490953398806 316) rotate(0 0.00004999999998744897 0.00004999999998744897)" stroke="none" fill="#000000"><path d="M 1.57,-1.57 Q 1.57,-1.57 1.77,-1.27 1.98,-0.98 2.09,-0.64 2.20,-0.29 2.19,0.05 2.18,0.41 2.05,0.75 1.93,1.09 1.70,1.37 1.48,1.65 1.18,1.84 0.87,2.04 0.52,2.12 0.18,2.21 -0.17,2.18 -0.53,2.15 -0.86,2.01 -1.19,1.87 -1.46,1.63 -1.73,1.39 -1.90,1.07 -2.08,0.76 -2.15,0.41 -2.21,0.05 -2.17,-0.29 -2.12,-0.65 -1.96,-0.97 -1.80,-1.29 -1.54,-1.54 -1.29,-1.80 -0.97,-1.96 -0.65,-2.12 -0.29,-2.17 0.06,-2.21 0.41,-2.15 0.76,-2.08 1.07,-1.90 1.39,-1.73 1.63,-1.46 1.87,-1.19 2.01,-0.86 2.15,-0.53 2.18,-0.17 2.21,0.18 2.12,0.52 2.03,0.87 1.84,1.18 1.65,1.48 1.37,1.70 1.09,1.93 0.75,2.05 0.41,2.18 0.05,2.19 -0.30,2.20 -0.64,2.09 -0.98,1.98 -1.27,1.77 -1.57,1.56 -1.57,1.57 -1.57,1.57 -1.73,1.35 -1.90,1.14 -2.01,0.90 -2.12,0.66 -2.16,0.39 -2.21,0.13 -2.20,-0.13 -2.18,-0.40 -2.10,-0.65 -2.02,-0.91 -1.88,-1.14 -1.74,-1.36 -1.55,-1.55 -1.36,-1.74 -1.14,-1.88 -0.91,-2.02 -0.65,-2.10 -0.40,-2.18 -0.13,-2.20 0.13,-2.21 0.39,-2.16 0.66,-2.12 0.90,-2.01 1.14,-1.90 1.35,-1.73 1.57,-1.57 1.57,-1.57 L 1.57,-1.57 Z"></path></g><g stroke-linecap="round"><g transform="translate(771.7824286732139 871.0000000000002) rotate(0 -146.9069588253056 -23.126122999324707)"><path d="M1.19 0.72 C-47.81 -6.94, -244.88 -37.66, -293.81 -45.47 M0.35 0.05 C-48.86 -7.95, -246.18 -38.92, -295 -46.97" stroke="#000000" stroke-width="1" fill="none"></path></g></g><g stroke-linecap="round"><g transform="translate(700.1157620065474 549.3333333333336) rotate(0 -57.06964700020853 -2.8810454293836756)"><path d="M-1.15 -1.17 C-20.08 -2.39, -95.19 -5.51, -114.11 -6.6 M0.44 0.83 C-18.52 -0.24, -95.31 -3.73, -114.58 -5.02" stroke="#000000" stroke-width="1" fill="none"></path></g></g><g stroke-linecap="round"><g transform="translate(1048.4490953398806 364.3333333333336) rotate(0 77.5 0)"><path d="M0 0 C25.83 0, 129.17 0, 155 0 M0 0 C25.83 0, 129.17 0, 155 0" stroke="#000000" stroke-width="1" fill="none"></path></g></g><g stroke-linecap="round"><g transform="translate(1201.782428673214 361.0000000000002) rotate(0 0 85)"><path d="M0 0 C0 28.33, 0 141.67, 0 170 M0 0 C0 28.33, 0 141.67, 0 170" stroke="#000000" stroke-width="1" fill="none"></path></g></g><g stroke-linecap="round"><g transform="translate(968.4490953398806 546.0000000000002) rotate(0 117.5 -6.666666666666629)"><path d="M0 0 C39.17 -2.22, 195.83 -11.11, 235 -13.33 M0 0 C39.17 -2.22, 195.83 -11.11, 235 -13.33" stroke="#000000" stroke-width="1" fill="none"></path></g></g><g stroke-linecap="round"><g transform="translate(591.7824286732139 541.0000000000002) rotate(0 136.66666666666674 -88.33333333333331)"><path d="M0 0 C45.56 -29.44, 227.78 -147.22, 273.33 -176.67 M0 0 C45.56 -29.44, 227.78 -147.22, 273.33 -176.67" stroke="#000000" stroke-width="1" fill="none"></path></g></g></svg>